<svg width="85" height="13" viewBox="0 0 85 13" fill="none" xmlns="http://www.w3.org/2000/svg">
<path d="M10.9432 4.14773H9.17045C9.10227 3.76894 8.97538 3.43561 8.78977 3.14773C8.60417 2.85985 8.37689 2.61553 8.10795 2.41477C7.83902 2.21401 7.53788 2.0625 7.20455 1.96023C6.875 1.85795 6.52462 1.80682 6.15341 1.80682C5.48295 1.80682 4.88258 1.97538 4.35227 2.3125C3.82576 2.64962 3.40909 3.14394 3.10227 3.79545C2.79924 4.44697 2.64773 5.24242 2.64773 6.18182C2.64773 7.12879 2.79924 7.92803 3.10227 8.57955C3.40909 9.23106 3.82765 9.72348 4.35795 10.0568C4.88826 10.3902 5.48485 10.5568 6.14773 10.5568C6.51515 10.5568 6.86364 10.5076 7.19318 10.4091C7.52652 10.3068 7.82765 10.1572 8.09659 9.96023C8.36553 9.76326 8.5928 9.52273 8.77841 9.23864C8.9678 8.95076 9.09848 8.62121 9.17045 8.25L10.9432 8.25568C10.8485 8.82765 10.6648 9.35417 10.392 9.83523C10.1231 10.3125 9.77652 10.7254 9.35227 11.0739C8.93182 11.4186 8.45076 11.6856 7.90909 11.875C7.36742 12.0644 6.77652 12.1591 6.13636 12.1591C5.12879 12.1591 4.23106 11.9205 3.44318 11.4432C2.6553 10.9621 2.03409 10.2746 1.57955 9.38068C1.12879 8.48674 0.903409 7.42045 0.903409 6.18182C0.903409 4.93939 1.13068 3.87311 1.58523 2.98295C2.03977 2.08901 2.66098 1.40341 3.44886 0.926136C4.23674 0.445075 5.13258 0.204545 6.13636 0.204545C6.75379 0.204545 7.32955 0.29356 7.86364 0.471591C8.40152 0.645833 8.88447 0.903409 9.3125 1.24432C9.74053 1.58144 10.0947 1.99432 10.375 2.48295C10.6553 2.9678 10.8447 3.52273 10.9432 4.14773ZM16.5838 12.1761C15.7656 12.1761 15.0516 11.9886 14.4418 11.6136C13.8319 11.2386 13.3584 10.714 13.0213 10.0398C12.6842 9.36553 12.5156 8.57765 12.5156 7.67614C12.5156 6.77083 12.6842 5.97917 13.0213 5.30114C13.3584 4.62311 13.8319 4.09659 14.4418 3.72159C15.0516 3.34659 15.7656 3.15909 16.5838 3.15909C17.402 3.15909 18.116 3.34659 18.7259 3.72159C19.3357 4.09659 19.8092 4.62311 20.1463 5.30114C20.4834 5.97917 20.652 6.77083 20.652 7.67614C20.652 8.57765 20.4834 9.36553 20.1463 10.0398C19.8092 10.714 19.3357 11.2386 18.7259 11.6136C18.116 11.9886 17.402 12.1761 16.5838 12.1761ZM16.5895 10.75C17.1198 10.75 17.5592 10.6098 17.9077 10.3295C18.2562 10.0492 18.5137 9.67614 18.6804 9.21023C18.8509 8.74432 18.9361 8.23106 18.9361 7.67045C18.9361 7.11364 18.8509 6.60227 18.6804 6.13636C18.5137 5.66667 18.2562 5.28977 17.9077 5.00568C17.5592 4.72159 17.1198 4.57955 16.5895 4.57955C16.0554 4.57955 15.6122 4.72159 15.2599 5.00568C14.9115 5.28977 14.652 5.66667 14.4815 6.13636C14.3149 6.60227 14.2315 7.11364 14.2315 7.67045C14.2315 8.23106 14.3149 8.74432 14.4815 9.21023C14.652 9.67614 14.9115 10.0492 15.2599 10.3295C15.6122 10.6098 16.0554 10.75 16.5895 10.75ZM24.2472 6.81818V12H22.5483V3.27273H24.179V4.69318H24.2869C24.4877 4.23106 24.8021 3.85985 25.2301 3.57955C25.6619 3.29924 26.2055 3.15909 26.8608 3.15909C27.4555 3.15909 27.9763 3.28409 28.4233 3.53409C28.8703 3.7803 29.2169 4.14773 29.4631 4.63636C29.7093 5.125 29.8324 5.72917 29.8324 6.44886V12H28.1335V6.65341C28.1335 6.02083 27.9688 5.52652 27.6392 5.17045C27.3097 4.81061 26.857 4.63068 26.2812 4.63068C25.8873 4.63068 25.5369 4.71591 25.2301 4.88636C24.9271 5.05682 24.6866 5.30682 24.5085 5.63636C24.3343 5.96212 24.2472 6.35606 24.2472 6.81818ZM36.1847 3.27273V4.63636H31.4176V3.27273H36.1847ZM32.696 1.18182H34.3949V9.4375C34.3949 9.76705 34.4441 10.0152 34.5426 10.1818C34.6411 10.3447 34.768 10.4564 34.9233 10.517C35.0824 10.5739 35.2547 10.6023 35.4403 10.6023C35.5767 10.6023 35.696 10.5928 35.7983 10.5739C35.9006 10.5549 35.9801 10.5398 36.0369 10.5284L36.3438 11.9318C36.2453 11.9697 36.1051 12.0076 35.9233 12.0455C35.7415 12.0871 35.5142 12.1098 35.2415 12.1136C34.7945 12.1212 34.3778 12.0417 33.9915 11.875C33.6051 11.7083 33.2926 11.4508 33.054 11.1023C32.8153 10.7538 32.696 10.3163 32.696 9.78977V1.18182ZM40.6037 12.1932C40.0507 12.1932 39.5507 12.0909 39.1037 11.8864C38.6567 11.678 38.3026 11.3769 38.0412 10.983C37.7836 10.589 37.6548 10.1061 37.6548 9.53409C37.6548 9.04167 37.7495 8.63636 37.9389 8.31818C38.1283 8 38.384 7.74811 38.706 7.5625C39.0279 7.37689 39.3878 7.23674 39.7855 7.14205C40.1832 7.04735 40.5885 6.97538 41.0014 6.92614C41.5241 6.86553 41.9484 6.81629 42.2741 6.77841C42.5999 6.73674 42.8366 6.67045 42.9844 6.57955C43.1321 6.48864 43.206 6.34091 43.206 6.13636V6.09659C43.206 5.60038 43.0658 5.21591 42.7855 4.94318C42.509 4.67045 42.0961 4.53409 41.5469 4.53409C40.9749 4.53409 40.5241 4.66098 40.1946 4.91477C39.8688 5.16477 39.6435 5.44318 39.5185 5.75L37.9219 5.38636C38.1113 4.85606 38.3878 4.42803 38.7514 4.10227C39.1188 3.77273 39.5412 3.53409 40.0185 3.38636C40.4957 3.23485 40.9976 3.15909 41.5241 3.15909C41.8726 3.15909 42.242 3.20076 42.6321 3.28409C43.026 3.36364 43.3935 3.51136 43.7344 3.72727C44.0791 3.94318 44.3613 4.25189 44.581 4.65341C44.8007 5.05114 44.9105 5.56818 44.9105 6.20455V12H43.2514V10.8068H43.1832C43.0734 11.0265 42.9086 11.2424 42.6889 11.4545C42.4692 11.6667 42.187 11.8428 41.8423 11.983C41.4976 12.1231 41.0848 12.1932 40.6037 12.1932ZM40.973 10.8295C41.4427 10.8295 41.8442 10.7367 42.1776 10.5511C42.5147 10.3655 42.7704 10.1231 42.9446 9.82386C43.1226 9.52083 43.2116 9.19697 43.2116 8.85227V7.72727C43.151 7.78788 43.0336 7.8447 42.8594 7.89773C42.6889 7.94697 42.4938 7.99053 42.2741 8.02841C42.0545 8.0625 41.8404 8.0947 41.6321 8.125C41.4238 8.15152 41.2495 8.17424 41.1094 8.19318C40.7798 8.23485 40.4787 8.30492 40.206 8.40341C39.937 8.50189 39.7211 8.64394 39.5582 8.82955C39.3991 9.01136 39.3196 9.25379 39.3196 9.55682C39.3196 9.97727 39.4749 10.2955 39.7855 10.5114C40.0961 10.7235 40.492 10.8295 40.973 10.8295ZM50.8494 12.1761C50.0047 12.1761 49.2775 11.9848 48.6676 11.6023C48.0616 11.2159 47.5956 10.6837 47.2699 10.0057C46.9441 9.32765 46.7812 8.55114 46.7812 7.67614C46.7812 6.78977 46.9479 6.00758 47.2812 5.32955C47.6146 4.64773 48.0843 4.11553 48.6903 3.73295C49.2964 3.35038 50.0104 3.15909 50.8324 3.15909C51.4953 3.15909 52.0862 3.2822 52.6051 3.52841C53.1241 3.77083 53.5426 4.11174 53.8608 4.55114C54.1828 4.99053 54.3741 5.50379 54.4347 6.09091H52.7812C52.6903 5.68182 52.482 5.32955 52.1562 5.03409C51.8343 4.73864 51.4025 4.59091 50.8608 4.59091C50.3873 4.59091 49.9725 4.71591 49.6165 4.96591C49.2642 5.21212 48.9896 5.56439 48.7926 6.02273C48.5956 6.47727 48.4972 7.01515 48.4972 7.63636C48.4972 8.27273 48.5938 8.82197 48.7869 9.28409C48.9801 9.74621 49.2528 10.1042 49.6051 10.358C49.9612 10.6117 50.3797 10.7386 50.8608 10.7386C51.1828 10.7386 51.4744 10.6799 51.7358 10.5625C52.0009 10.4413 52.2225 10.2689 52.4006 10.0455C52.5824 9.82197 52.7093 9.55303 52.7812 9.23864H54.4347C54.3741 9.80303 54.1903 10.3068 53.8835 10.75C53.5767 11.1932 53.1657 11.5417 52.6506 11.7955C52.1392 12.0492 51.5388 12.1761 50.8494 12.1761ZM60.3253 3.27273V4.63636H55.5582V3.27273H60.3253ZM56.8366 1.18182H58.5355V9.4375C58.5355 9.76705 58.5848 10.0152 58.6832 10.1818C58.7817 10.3447 58.9086 10.4564 59.0639 10.517C59.223 10.5739 59.3954 10.6023 59.581 10.6023C59.7173 10.6023 59.8366 10.5928 59.9389 10.5739C60.0412 10.5549 60.1207 10.5398 60.1776 10.5284L60.4844 11.9318C60.3859 11.9697 60.2457 12.0076 60.0639 12.0455C59.8821 12.0871 59.6548 12.1098 59.3821 12.1136C58.9351 12.1212 58.5185 12.0417 58.1321 11.875C57.7457 11.7083 57.4332 11.4508 57.1946 11.1023C56.956 10.7538 56.8366 10.3163 56.8366 9.78977V1.18182ZM74.0582 0.363636H75.8196V8.01705C75.8196 8.83144 75.6283 9.55303 75.2457 10.1818C74.8632 10.8068 74.3253 11.2992 73.6321 11.6591C72.9389 12.0152 72.1264 12.1932 71.1946 12.1932C70.2666 12.1932 69.456 12.0152 68.7628 11.6591C68.0696 11.2992 67.5317 10.8068 67.1491 10.1818C66.7666 9.55303 66.5753 8.83144 66.5753 8.01705V0.363636H68.331V7.875C68.331 8.40152 68.4465 8.86932 68.6776 9.27841C68.9124 9.6875 69.2438 10.0095 69.6719 10.2443C70.0999 10.4754 70.6075 10.5909 71.1946 10.5909C71.7855 10.5909 72.295 10.4754 72.723 10.2443C73.1548 10.0095 73.4844 9.6875 73.7116 9.27841C73.9427 8.86932 74.0582 8.40152 74.0582 7.875V0.363636ZM84.7756 5.40341L83.2358 5.67614C83.1714 5.47917 83.0691 5.29167 82.929 5.11364C82.7926 4.93561 82.607 4.78977 82.3722 4.67614C82.1373 4.5625 81.8438 4.50568 81.4915 4.50568C81.0104 4.50568 80.6089 4.61364 80.2869 4.82955C79.965 5.04167 79.804 5.31629 79.804 5.65341C79.804 5.94508 79.9119 6.17992 80.1278 6.35795C80.3438 6.53598 80.6922 6.68182 81.1733 6.79545L82.5597 7.11364C83.3627 7.29924 83.9612 7.58523 84.3551 7.97159C84.7491 8.35795 84.946 8.85985 84.946 9.47727C84.946 10 84.7945 10.4659 84.4915 10.875C84.1922 11.2803 83.7737 11.5985 83.2358 11.8295C82.7017 12.0606 82.0824 12.1761 81.3778 12.1761C80.4006 12.1761 79.6032 11.9678 78.9858 11.5511C78.3684 11.1307 77.9896 10.5341 77.8494 9.76136L79.4915 9.51136C79.5938 9.93939 79.804 10.2633 80.1222 10.483C80.4403 10.6989 80.8551 10.8068 81.3665 10.8068C81.9233 10.8068 82.3684 10.6913 82.7017 10.4602C83.035 10.2254 83.2017 9.93939 83.2017 9.60227C83.2017 9.32955 83.0994 9.10038 82.8949 8.91477C82.6941 8.72917 82.3854 8.58902 81.9688 8.49432L80.4915 8.17045C79.6771 7.98485 79.0748 7.68939 78.6847 7.28409C78.2983 6.87879 78.1051 6.36553 78.1051 5.74432C78.1051 5.22917 78.2491 4.77841 78.5369 4.39205C78.8248 4.00568 79.2225 3.70455 79.7301 3.48864C80.2377 3.26894 80.8191 3.15909 81.4744 3.15909C82.4176 3.15909 83.16 3.36364 83.7017 3.77273C84.2434 4.17803 84.6013 4.72159 84.7756 5.40341Z" fill="white"/>
</svg>
